<svg id="svg3154" xmlns="http://www.w3.org/2000/svg" viewBox="0 0 1380.91 512"><defs><style>.cls-1{fill:#565555;}.cls-2{isolation:isolate;}.cls-3{fill:#fb0;}</style></defs><title>Committed Software - Colour</title><path class="cls-1" d="M50.59,129.71c0,28.39,11.62,45.69,30.82,45.69,14.6,0,22.17-7.3,27-26.22h36.22C141.16,184.06,116.56,206,81.14,206c-43.26,0-68.4-28.12-68.4-76.25,0-49.74,25.41-78.4,68.94-78.4,36.5,0,60.29,21.36,63,57H108.45c-4.33-19.19-11.63-26.5-27-26.5C55.18,81.85,50.59,109.44,50.59,129.71Z"/><path class="cls-1" d="M410.27,60V78.07c12.44-14.87,23.25-20.54,40-20.54,18.12,0,32.72,7.83,39.75,21.62C501.38,64,514.36,57.53,532.75,57.53c29.2,0,46.5,16.76,46.5,45.15V206H541.4V108.63c0-11.63-7.84-18.93-20.55-18.93-16.22,0-26,10.81-26,28.66V206H457V108.63C457,97,449.2,89.7,436.49,89.7c-16.22,0-25.95,10.81-25.95,28.66V206H372.69V60Z"/><path class="cls-1" d="M642.55,60V78.07c12.44-14.87,23.25-20.54,40-20.54,18.12,0,32.72,7.83,39.75,21.62C733.67,64,746.64,57.53,765,57.53c29.2,0,46.5,16.76,46.5,45.15V206H773.68V108.63c0-11.63-7.84-18.93-20.55-18.93-16.22,0-26,10.81-26,28.66V206H689.32V108.63c0-11.63-7.84-18.93-20.54-18.93-16.22,0-26,10.81-26,28.66V206H605V60Z"/><path class="cls-1" d="M877,42.65H839.14V8.86H877ZM877,206H839.14V60H877Z"/><path class="cls-1" d="M972.18,85.1H951.09v76.25c0,13,2.43,16,12.43,16a57.24,57.24,0,0,0,8.66-.81V203c-6.76,2.16-13.52,3-21.91,3-24.87,0-37-11.36-37-34.34V85.1H894.58V60h18.65V17.51h37.86V60h21.09Z"/><path class="cls-1" d="M1064.92,85.1h-21.08v76.25c0,13,2.43,16,12.43,16a57,57,0,0,0,8.65-.81V203c-6.76,2.16-13.52,3-21.9,3-24.87,0-37-11.36-37-34.34V85.1H987.33V60H1006V17.51h37.86V60h21.08Z"/><path class="cls-1" d="M1212.83,132.15a62.06,62.06,0,0,1-.28,6.49h-97.87c.81,19.73,4.87,38.39,30.28,38.39,13.79,0,24.34-6.76,28.93-18.39h37.31c-8.38,28.66-34.88,47.32-67.59,47.32-41.37,0-66.78-28.66-66.78-75.44,0-48.94,25.69-79.21,67.59-79.21C1173.62,51.31,1212.83,67.53,1212.83,132.15Zm-68.95-51.91c-16.76,0-26.22,11.08-28.66,33.25h58.13C1171.73,92.13,1161.46,80.24,1143.88,80.24Z"/><path class="cls-1" d="M1229.07,128.9c0-44.07,26.5-77.59,61.38-77.59,18.11,0,30.82,6.76,40.28,21.36v-70h37.85V206h-37.85V184.87c-9.46,14.33-22.17,21.09-40.28,21.09C1253.68,206,1229.07,171.62,1229.07,128.9Zm37.85,0c0,26.77,13,45.42,31.91,45.42s31.9-18.38,31.9-44.88c0-27.85-12.71-46.5-31.9-46.5C1279.9,82.94,1266.92,101.86,1266.92,128.9Z"/><g class="cls-2"><path class="cls-1" d="M79.11,436.31c17.58,0,28.12-5.41,28.12-14.33,0-5.94-3.24-8.92-12.71-11.89L49.37,396c-8.38-2.7-31.9-7.31-31.9-36,0-30,23-48.67,60-48.67,39.2,0,63,18.65,63.54,49.48h-36.5c-.27-13.25-9.2-19.73-27.31-19.73-13.25,0-21.9,5.4-21.9,13.51,0,5.95,2.7,8.11,13.25,11.35l47.85,13.8c19.2,5.67,28.66,17.84,28.66,36.77,0,20.27-12.7,49.47-63.81,49.47-44.33,0-67.86-16.76-68.94-48.67h37C51.54,427.39,55.32,436.31,79.11,436.31Z"/></g><path class="cls-1" d="M453.53,348.17H431.08V466.05H393.24V348.17H372.69V323h20.55V305.46c0-24.61,12.16-36.51,37.31-36.51,5.13,0,14.6.28,21.62.82v28.38a72.84,72.84,0,0,0-10.81-.81c-7,0-10.28,3.79-10.28,11.36V323h22.45Z"/><path class="cls-1" d="M543,348.17H521.94v73.27c0,13,2.43,15.95,12.44,15.95a57.23,57.23,0,0,0,8.65-.81v26.49c-6.76,2.17-13.52,3-21.9,3-24.87,0-37-11.35-37-34.33V348.17H465.44V323h18.65V277.61h37.85V323H543Z"/><path class="cls-1" d="M678.23,466.05l-21.9-103-23.25,103H594.14l-41.09-146h39.2L615.5,422.26l22.17-102.21h37.85l21.9,102.21,22.17-102.21h39.2l-41.36,146Z"/><path class="cls-1" d="M764.24,422.26c0-26.23,14.06-41.1,43-46l15.14-2.7c12.43-1.9,30.28-2.71,30.28-17q0-14.6-21.9-14.6c-18.66,0-24.87,4.87-26.77,20h-36.5c2.44-33.79,23-50.56,62.46-50.56s59.75,15.14,59.75,44.88v68.19c0,20.33,3.38,30.77,10.14,37v4.59H858.74c-3.52-4.32-5.82-13.25-5.82-20.81-13.25,13.78-28.12,20.81-44.34,20.81C782.08,466.05,764.24,448.48,764.24,422.26Zm88.41-31.37c-4.33,2.17-5.95,2.7-15.95,4.59l-13,2.44c-15.68,3.24-21.63,8.65-21.63,20,0,10.82,7.84,17.58,20.55,17.58,19.19,0,30-12.44,30-34.34Z"/><path class="cls-1" d="M953.79,320.05v28.66C961.9,329,977,317.62,994.34,317.62a33.19,33.19,0,0,1,4.6.27v38.39A66.9,66.9,0,0,0,987,355.2q-33.25,0-33.25,33.25v77.6H915.94v-146Z"/><path class="cls-1" d="M1146,392.24a64.35,64.35,0,0,1-.27,6.49h-97.87c.81,19.74,4.87,38.39,30.28,38.39,13.79,0,24.34-6.76,28.93-18.38h37.31c-8.38,28.66-34.88,47.31-67.59,47.31-41.37,0-66.78-28.66-66.78-75.43,0-48.94,25.68-79.22,67.59-79.22C1106.83,311.4,1146,327.62,1146,392.24Zm-68.94-51.91c-16.76,0-26.22,11.09-28.66,33.26h58.13C1104.94,352.23,1094.67,340.33,1077.09,340.33Z"/><path class="cls-3" d="M276.86,301.21V216.82a90.66,90.66,0,0,0,0-176.38V0H234.61V40.44a90.65,90.65,0,0,0,0,176.38v84.39a90.66,90.66,0,0,0,0,176.39V512h42.25V477.6a90.66,90.66,0,0,0,0-176.39ZM207.21,128.63a48.53,48.53,0,1,1,48.52,48.53A48.57,48.57,0,0,1,207.21,128.63Zm48.52,309.3a48.53,48.53,0,1,1,48.53-48.52A48.57,48.57,0,0,1,255.73,437.93Z"/></svg>